<?xml version="1.0" standalone="no"?>
<!DOCTYPE svg PUBLIC "-//W3C//DTD SVG 20010904//EN"
 "http://www.w3.org/TR/2001/REC-SVG-20010904/DTD/svg10.dtd">
<svg version="1.0" xmlns="http://www.w3.org/2000/svg"
 width="1188.000000pt" height="398.000000pt" viewBox="0 0 1188.000000 398.000000"
 preserveAspectRatio="xMidYMid meet">

<g transform="translate(0.000000,398.000000) scale(0.100000,-0.100000)"
fill="#000000" stroke="none">
<path d="M4880 3390 l-175 -570 -202 0 c-112 0 -203 1 -203 3 0 1 74 225 165
497 91 272 165 498 165 502 0 5 -172 8 -383 8 l-382 0 -168 -505 c-168 -505
-169 -505 -196 -505 l-28 0 174 496 c95 272 173 500 173 505 0 5 -338 9 -855
9 -678 0 -855 -3 -854 -12 0 -7 78 -233 173 -503 l172 -490 -763 -3 c-662 -2
-763 -4 -763 -17 0 -8 -6 -12 -14 -9 -19 7 -910 -1036 -896 -1050 6 -6 10 -18
10 -28 0 -16 11 -18 128 -18 70 0 704 0 1409 0 l1282 0 19 -52 c10 -29 36
-102 57 -161 20 -59 39 -106 41 -104 4 3 114 308 114 314 0 2 18 3 39 3 l39 0
-164 -492 c-90 -271 -164 -496 -164 -500 0 -5 172 -8 383 -8 l382 0 164 493
c90 270 167 495 170 500 4 4 102 6 217 5 l210 -3 -153 -495 c-84 -272 -153
-495 -153 -497 0 -2 455 -3 1010 -3 556 0 1010 2 1010 5 0 6 -261 851 -290
938 l-19 57 78 0 77 0 145 -492 145 -493 348 -3 c328 -2 347 -1 342 15 -3 10
-67 227 -141 482 -75 255 -139 470 -142 478 -4 11 7 13 62 11 l68 -3 127 -435
c70 -239 135 -461 144 -492 l17 -58 345 0 c324 0 345 1 340 18 -3 9 -66 226
-141 482 -75 256 -137 471 -140 478 -3 9 45 12 220 12 l225 0 0 -500 0 -500
335 0 335 0 0 500 0 500 50 0 50 0 0 -500 0 -500 360 0 360 0 0 500 0 500 900
0 c761 0 900 2 900 14 0 8 7 13 16 12 10 -1 127 176 345 520 315 498 328 521
316 547 l-12 27 -1232 0 -1233 0 0 545 0 545 -360 0 -360 0 0 -545 0 -545 -50
0 -50 0 0 545 0 545 -335 0 -335 0 0 -545 0 -545 -388 0 -387 0 -130 443 c-71
243 -137 470 -147 505 l-19 62 -345 0 c-324 0 -345 -1 -340 -17 24 -75 286
-978 286 -985 0 -4 -29 -8 -65 -8 l-64 0 -19 63 c-10 34 -77 261 -148 504
l-129 443 -348 0 c-346 0 -348 0 -342 -20 4 -11 71 -239 149 -506 l143 -485
-86 3 -86 3 -175 567 c-96 312 -177 568 -180 568 -3 0 -84 -257 -180 -570z
m-3842 -669 c-18 -21 -213 -246 -433 -500 l-400 -461 -52 0 c-29 0 -53 2 -53
5 0 3 190 228 422 500 l422 495 64 0 64 0 -34 -39z m1466 -35 l27 -74 -30
-144 c-17 -79 -31 -147 -31 -151 0 -4 9 -7 19 -7 16 0 22 11 31 58 6 31 13 63
15 70 5 15 155 17 155 2 0 -5 -21 -10 -46 -10 -43 0 -46 -2 -40 -22 3 -13 54
-162 114 -333 l109 -310 -618 -3 c-341 -1 -898 -1 -1238 0 l-619 3 424 488
c233 269 424 493 424 498 0 5 261 9 639 9 l638 0 27 -74z m945 -108 c-32 -101
-59 -191 -59 -200 0 -10 -4 -18 -8 -18 -8 0 -33 172 -32 215 1 16 3 14 13 -8
12 -27 13 -24 51 83 36 104 40 110 66 110 l28 0 -59 -182z m1231 173 c0 -5 -9
-39 -20 -75 l-21 -66 -69 0 c-68 0 -70 -1 -76 -27 -35 -154 -66 -233 -96 -241
-10 -2 -18 -7 -18 -11 0 -3 -4 -23 -9 -43 -8 -33 -7 -38 9 -38 12 0 21 10 25
30 l7 30 104 0 c63 0 104 -4 104 -10 0 -5 -18 -10 -40 -10 l-40 0 -27 -88
c-22 -74 -31 -91 -53 -101 -15 -6 -32 -21 -37 -34 -17 -36 -63 -87 -80 -87
-16 0 -16 11 3 98 6 28 4 32 -15 32 -11 0 -21 -2 -21 -5 0 -2 -13 -68 -30
-145 -16 -77 -30 -143 -30 -145 0 -3 9 -5 19 -5 14 0 21 9 26 33 20 97 25 108
45 97 11 -6 29 -29 41 -52 19 -36 20 -45 9 -84 l-13 -44 -214 0 c-192 0 -214
2 -209 16 3 9 6 20 6 25 0 5 11 9 24 9 22 0 26 6 37 60 l12 60 57 0 c75 0 117
16 135 51 40 77 2 129 -96 129 -33 0 -59 3 -59 7 0 4 17 57 37 119 l36 111 35
-23 c43 -29 80 -30 132 -4 52 27 90 91 90 154 0 87 -47 136 -130 136 -22 0
-40 2 -40 3 0 3 33 103 45 135 5 14 405 18 405 3z m949 -76 l24 -85 -26 -28
c-34 -35 -47 -72 -47 -130 0 -61 17 -92 61 -116 50 -27 102 -16 153 35 21 22
43 36 47 32 14 -14 -27 -69 -60 -84 -17 -8 -31 -19 -31 -25 0 -6 11 -48 25
-94 14 -46 25 -85 25 -87 0 -2 -9 1 -21 8 -21 11 -91 8 -120 -5 -13 -6 -21 8
-43 78 -14 48 -37 123 -51 169 l-26 82 -84 -3 -85 -3 -10 -40 c-6 -21 -15 -39
-20 -39 -12 0 -12 11 -4 63 l7 37 82 0 c101 0 112 8 88 69 l-16 42 -51 -3
c-47 -3 -50 -5 -58 -35 -5 -18 -13 -33 -18 -33 -12 0 -12 15 -4 59 l7 31 87 0
c79 0 88 2 93 20 4 17 0 20 -34 20 l-38 0 -21 69 c-11 37 -20 71 -20 75 0 3
37 6 83 6 l83 0 23 -85z m823 20 c17 -58 17 -62 -2 -140 -10 -44 -22 -100 -26
-124 -6 -39 -9 -42 -20 -27 -11 15 -14 9 -26 -46 -12 -54 -18 -63 -38 -66 -21
-3 -22 -2 -11 12 12 14 71 259 71 294 0 11 -8 13 -28 9 -27 -5 -28 -3 -46 61
-11 37 -21 73 -24 80 -3 10 11 12 64 10 l68 -3 18 -60z m1428 -10 l0 -75 -69
0 c-65 0 -81 -7 -81 -36 0 -2 23 -4 51 -4 43 0 50 -2 45 -17 -9 -28 -46 -214
-46 -229 0 -8 8 -14 18 -14 15 0 22 19 41 113 32 160 25 147 81 147 30 0 50 5
53 13 2 6 8 9 12 5 4 -4 5 -14 2 -23 -5 -10 -20 -15 -51 -15 -37 0 -45 -3 -50
-22 -3 -13 -6 -112 -6 -220 l0 -198 -70 0 c-38 0 -70 -2 -70 -4 0 -2 -3 -11
-6 -20 -5 -13 2 -16 45 -16 48 0 51 -1 46 -22 -19 -88 -45 -214 -45 -225 0 -7
8 -13 19 -13 15 0 22 17 40 113 31 159 25 147 81 147 30 0 50 5 53 13 2 6 8 9
12 5 4 -4 5 -14 2 -23 -5 -10 -20 -15 -51 -15 -55 0 -56 -3 -56 -167 l0 -123
-235 0 c-202 0 -235 2 -235 15 0 8 -9 15 -20 15 -20 0 -28 15 -11 22 5 2 -2
66 -15 143 -13 77 -24 143 -24 148 0 4 -6 7 -14 7 -8 0 -17 8 -20 18 -2 9 -14
50 -26 90 l-21 72 -59 0 c-33 0 -60 4 -60 10 0 6 42 10 105 10 87 0 105 3 105
15 0 11 -13 15 -54 15 -54 0 -54 0 -63 36 -10 43 -26 45 -34 4 -14 -65 -34
-52 -24 14 l7 46 84 0 c73 0 85 2 94 20 10 19 8 20 -75 20 -92 0 -91 -1 -79
59 l7 31 87 0 c79 0 88 2 93 20 5 19 0 20 -104 20 -76 0 -109 -3 -109 -12 0
-24 -11 2 -34 80 l-24 82 379 0 379 0 0 -75z m770 -13 c0 -78 -3 -91 -21 -108
-45 -40 -64 -139 -36 -194 17 -34 74 -70 109 -70 49 0 99 30 130 79 26 41 29
53 26 109 -4 56 -2 62 10 45 9 -12 12 -39 10 -85 -3 -57 -8 -73 -34 -105 -41
-50 -98 -71 -154 -57 l-40 11 0 -268 0 -269 -50 0 -50 0 0 395 0 395 -43 0
-43 0 -27 -127 c-26 -122 -41 -153 -62 -132 -6 6 -6 12 1 17 9 5 64 228 64
257 0 3 36 5 80 5 73 0 80 2 80 20 0 15 -7 20 -25 20 -24 0 -25 2 -25 75 l0
75 50 0 50 0 0 -88z m2903 74 c-4 -7 -156 -232 -338 -500 l-330 -486 -757 0
-758 0 0 263 0 263 -59 -1 c-36 0 -65 5 -73 13 -10 10 -6 11 19 6 45 -9 97 12
133 52 37 42 38 58 5 52 -25 -5 -25 -5 -25 69 0 84 -8 93 -64 69 -45 -19 -80
-87 -74 -146 3 -30 1 -36 -9 -28 -16 13 -17 101 -2 131 43 84 142 102 169 32
6 -16 15 -23 25 -19 23 9 18 33 -15 66 -28 27 -30 35 -30 104 l0 74 1095 0
c930 0 1095 -2 1088 -14z m227 8 c0 -3 -141 -228 -312 -500 l-313 -494 -68 0
c-38 0 -67 4 -65 8 2 5 153 230 337 500 l335 492 43 0 c24 0 43 -3 43 -6z
m-5120 -109 c0 -23 -44 -47 -74 -39 -33 8 -33 19 0 21 15 0 34 8 42 17 20 20
32 20 32 1z m-4081 -117 c-14 -63 -34 -64 -25 -2 7 52 15 69 27 57 4 -4 3 -29
-2 -55z m201 38 c0 -27 -48 -254 -56 -268 -7 -10 -34 -11 -34 0 0 4 4 12 9 17
5 6 19 60 31 120 29 149 31 155 41 155 5 0 9 -11 9 -24z m810 5 c0 -35 -50
-264 -61 -277 -6 -7 -17 -10 -25 -7 -13 5 -13 8 -1 22 7 9 21 52 30 96 35 169
39 185 48 185 5 0 9 -8 9 -19z m284 11 c13 -21 -15 -31 -94 -34 l-84 -3 -8
-32 c-5 -18 -13 -33 -18 -33 -12 0 -12 15 -4 59 l7 31 88 0 c53 0 89 4 89 10
0 12 17 13 24 2z m274 -9 c-2 -14 -15 -19 -51 -21 -26 -2 -47 -5 -47 -7 0 -3
-12 -60 -26 -127 -26 -120 -39 -147 -59 -127 -6 6 -6 12 1 17 6 4 21 57 33
117 32 158 25 145 82 145 27 0 49 5 49 10 0 6 5 10 11 10 6 0 9 -8 7 -17z
m562 -5 c0 -11 -10 -68 -22 -125 -15 -73 -26 -103 -36 -103 -10 0 -13 7 -9 22
4 12 16 68 28 125 12 57 26 103 30 103 5 0 9 -10 9 -22z m94 -69 c-15 -64 -41
-126 -49 -117 -3 3 32 174 41 197 3 9 8 11 14 5 7 -7 5 -36 -6 -85z m206 72
c0 -32 -52 -265 -62 -278 -5 -6 -16 -9 -24 -6 -11 4 -12 9 -4 19 11 12 19 42
55 207 9 42 21 77 26 77 5 0 9 -8 9 -19z m90 -31 c-6 -19 -10 -48 -10 -64 0
-24 -2 -27 -15 -16 -16 13 -13 56 7 109 14 38 30 12 18 -29z m193 29 c-8 -64
-58 -275 -66 -281 -6 -3 -16 -4 -24 -1 -12 5 -12 8 0 22 8 9 27 76 43 149 17
81 31 131 38 129 6 -2 10 -10 9 -18z m683 -16 c-10 -56 -16 -73 -27 -73 -12 0
-11 26 2 73 5 20 15 37 21 37 6 0 8 -13 4 -37z m164 21 c0 -9 -9 -18 -19 -21
-26 -7 -103 -111 -94 -126 3 -7 -3 -3 -15 7 l-22 19 23 26 c13 14 31 38 40 53
14 23 57 54 80 57 4 1 7 -6 7 -15z m73 -74 c-13 -63 -39 -127 -48 -118 -3 3
32 174 41 197 3 9 8 11 14 5 5 -5 2 -39 -7 -84z m301 16 c2 -59 -1 -67 -32
-102 -19 -22 -32 -32 -29 -23 3 8 13 53 22 100 25 124 37 132 39 25z m196 52
c0 -13 -13 -79 -28 -148 -26 -115 -30 -125 -52 -128 -21 -3 -22 -2 -11 11 12
15 19 43 56 210 15 73 35 104 35 55z m230 12 c0 -11 -38 -194 -46 -222 -3 -10
-11 -18 -18 -18 -10 0 -7 27 11 113 13 61 26 118 28 125 5 14 25 16 25 2z
m185 -62 c-7 -35 -18 -89 -25 -120 -8 -40 -16 -58 -26 -58 -10 0 -14 6 -10 18
2 9 14 62 26 116 22 106 27 119 40 111 4 -2 2 -33 -5 -67z m1845 22 c-6 -19
-10 -48 -10 -64 0 -24 -2 -27 -15 -16 -16 13 -13 56 7 109 14 38 30 12 18 -29z
m193 29 c-8 -64 -58 -275 -66 -281 -6 -3 -16 -4 -24 -1 -12 5 -12 8 0 22 8 9
27 76 43 149 17 81 31 131 38 129 6 -2 10 -10 9 -18z m-6163 -15 c13 -13 12
-14 -9 -6 -35 13 -68 3 -101 -29 -31 -31 -47 -97 -35 -141 6 -22 6 -22 -9 -4
-20 25 -20 86 -2 131 28 66 113 93 156 49z m1338 -10 c24 -27 29 -83 12 -129
-28 -73 -116 -100 -165 -50 -19 18 -25 35 -25 70 0 117 111 185 178 109z
m1438 20 c19 -15 18 -15 -3 -9 -27 7 -93 -19 -93 -38 0 -7 11 -50 24 -95 l24
-82 -31 0 c-50 0 -77 34 -77 95 0 102 93 180 156 129z m3014 -10 c13 -14 12
-14 -13 -5 -21 8 -36 7 -60 -3 -49 -20 -67 -55 -67 -128 -1 -58 -2 -61 -15
-44 -20 26 -19 99 0 137 33 62 114 85 155 43z m-4805 6 c-3 -5 -19 -10 -35
-10 -16 0 -32 5 -35 10 -4 6 10 10 35 10 25 0 39 -4 35 -10z m649 -9 c-12 -10
-33 -61 -49 -115 l-28 -96 -53 0 -52 0 18 34 c9 19 28 71 40 115 l24 81 60 0
c59 0 59 0 40 -19z m3536 10 c0 -6 -23 -11 -52 -13 -50 -3 -52 -4 -61 -38 -19
-75 -43 -67 -26 9 l11 51 64 0 c35 0 64 -4 64 -9z m70 -52 c0 -24 -8 -44 -24
-62 -27 -29 -47 -36 -125 -39 -60 -3 -54 4 -75 -90 -4 -19 -13 -28 -26 -28
-11 0 -20 5 -20 10 0 6 4 10 9 10 6 0 15 27 22 60 l12 60 59 0 c101 0 148 36
148 113 0 24 3 28 10 17 5 -8 10 -31 10 -51z m-5150 -13 c17 -77 -29 -174 -96
-202 -41 -17 -95 -18 -117 -1 -15 10 -9 12 35 12 99 0 163 76 156 186 -3 62 8
65 22 5z m2770 24 c0 -21 -15 -34 -29 -26 -5 4 -4 16 2 30 13 27 27 25 27 -4z
m-2543 -57 c-3 -43 -8 -87 -11 -98 -4 -11 1 -4 10 15 l17 35 12 -59 12 -60
-89 -268 -90 -268 -38 0 -39 0 15 43 c61 168 164 468 164 477 0 5 -7 10 -15
10 -8 0 -15 5 -15 10 0 6 4 10 9 10 4 0 19 52 32 115 13 63 25 115 28 115 2 0
1 -35 -2 -77z m1610 26 c-15 -33 -146 -186 -175 -203 -8 -5 -18 -4 -24 2 -8 8
-2 18 18 35 16 14 65 66 108 116 44 50 81 89 83 87 2 -2 -2 -19 -10 -37z
m1413 6 c-11 -29 -151 -193 -178 -209 -8 -5 -18 -4 -24 2 -8 8 -2 18 18 35 16
14 65 66 108 116 44 50 81 89 83 87 2 -2 -1 -16 -7 -31z m290 0 c-6 -16 -26
-46 -45 -67 -19 -21 -35 -46 -35 -56 0 -9 23 -94 51 -189 l50 -172 -20 -95
c-12 -53 -21 -98 -21 -101 0 -3 41 -5 91 -5 87 0 92 1 120 29 22 22 29 39 29
68 0 28 3 34 10 23 19 -30 11 -77 -19 -109 -24 -26 -36 -31 -75 -31 -34 0 -46
-4 -46 -15 0 -12 -14 -15 -65 -15 -36 0 -65 4 -65 9 0 5 -4 21 -10 36 l-10 26
-29 -22 c-38 -28 -118 -37 -146 -15 -19 14 -17 14 20 9 91 -12 166 56 173 156
5 72 -15 115 -64 138 -31 15 -37 25 -56 88 -11 38 -27 80 -35 93 -13 21 -12
25 9 41 13 11 61 62 107 115 47 52 86 94 88 92 2 -2 -1 -16 -7 -31z m-3121
-20 c-6 -21 -29 -71 -52 -112 -32 -58 -46 -73 -64 -73 -13 0 -23 5 -23 10 0 6
6 10 13 10 6 0 39 47 71 105 33 57 61 103 63 102 1 -2 -2 -20 -8 -42z m329
-32 c-3 -15 -16 -18 -85 -21 l-82 -3 -11 -39 c-6 -22 -15 -40 -20 -40 -12 0
-12 11 -4 63 l7 37 83 0 c45 0 86 5 89 10 10 17 27 11 23 -7z m2120 -24 c-10
-5 -19 -30 -23 -59 -8 -56 -30 -89 -49 -70 -8 8 -8 13 1 18 7 4 17 32 23 62
17 84 16 83 41 69 19 -10 20 -13 7 -20z m-2728 -23 c0 -16 -77 -30 -103 -20
-29 11 -8 24 39 24 24 0 44 5 44 11 0 5 5 7 10 4 6 -3 10 -12 10 -19z m1964 9
c-5 -11 -21 -15 -59 -15 -71 0 -81 18 -13 23 29 2 58 4 65 5 7 1 10 -4 7 -13z
m3870 0 c-5 -11 -21 -15 -59 -15 -71 0 -81 18 -13 23 29 2 58 4 65 5 7 1 10
-4 7 -13z m-3000 -50 c19 -50 16 -78 -9 -69 -19 8 -20 24 0 24 12 0 11 8 -5
46 -22 51 -24 57 -11 50 4 -3 16 -26 25 -51z m1039 -79 c-3 -21 -12 -40 -20
-43 -21 -8 -24 0 -11 38 6 19 13 40 15 48 8 31 22 -6 16 -43z m-3273 29 c0
-21 -32 -26 -134 -23 -59 2 -91 7 -93 15 -3 9 24 13 104 16 59 1 111 4 116 5
4 1 7 -5 7 -13z m852 10 c3 -3 1 -24 -4 -45 -8 -30 -15 -40 -30 -40 -15 0 -18
3 -10 13 5 6 13 27 17 45 6 30 15 39 27 27z m848 -9 c0 -11 -21 -16 -82 -21
-98 -8 -140 -5 -145 12 -3 9 24 13 104 16 59 1 111 4 116 5 4 1 7 -4 7 -12z
m1513 -11 c-4 -13 -22 -15 -101 -13 -65 2 -97 7 -100 16 -3 9 22 12 102 12 91
0 105 -2 99 -15z m-903 -149 c0 -18 -38 -46 -60 -46 -9 0 -24 6 -34 13 -17 12
-16 14 13 14 18 0 39 7 49 16 20 21 32 22 32 3z m-2355 -93 c-18 -100 -28
-135 -45 -155 -18 -22 -18 -19 1 72 25 117 26 120 40 120 8 0 9 -12 4 -37z
m195 15 c-1 -13 -13 -79 -28 -148 -22 -102 -31 -125 -46 -128 -15 -3 -17 0
-11 14 8 20 23 81 50 207 16 73 35 104 35 55z m550 1 c0 -5 -11 -14 -24 -19
-27 -10 -63 -64 -72 -106 -3 -18 2 -47 15 -77 26 -61 26 -77 1 -77 -11 0 -20
5 -20 10 0 6 7 10 15 10 12 0 10 11 -11 57 -13 32 -32 66 -42 76 -16 18 -16
19 1 28 10 6 29 28 42 49 32 51 95 83 95 49z m75 -49 c15 -38 25 -75 23 -82
-4 -10 -58 126 -58 145 0 20 11 1 35 -63z m185 53 c0 -10 -38 -76 -83 -148
-84 -132 -111 -157 -153 -141 -16 7 -14 10 15 19 30 10 47 32 120 149 47 76
89 138 94 138 4 0 7 -8 7 -17z m258 0 c-2 -14 -15 -19 -49 -21 l-46 -3 -27
-127 c-26 -122 -40 -152 -61 -131 -6 6 -6 12 1 17 7 4 22 57 34 117 31 157 24
145 81 145 27 0 49 5 49 10 0 6 5 10 11 10 6 0 9 -8 7 -17z m377 -30 c-8 -53
-12 -63 -26 -63 -12 0 -11 26 2 73 15 55 33 48 24 -10z m165 32 c0 -9 -11 -20
-25 -25 -13 -5 -31 -22 -39 -37 -20 -39 -62 -77 -76 -68 -8 5 -4 15 13 34 13
14 32 38 42 54 15 24 55 53 78 56 4 1 7 -6 7 -14z m410 3 c0 -35 -40 -172 -53
-185 -13 -13 -13 -2 4 78 24 115 26 119 39 119 5 0 10 -6 10 -12z m190 -8 c0
-33 -52 -264 -62 -277 -5 -6 -16 -9 -23 -6 -12 4 -12 8 -1 26 8 12 19 47 25
77 30 146 44 200 52 200 5 0 9 -9 9 -20z m688 3 c-3 -15 -17 -19 -78 -23 -73
-5 -74 -5 -82 -37 -5 -18 -13 -33 -18 -33 -12 0 -12 15 -4 59 l7 31 78 0 c46
0 79 4 79 10 0 6 5 10 11 10 6 0 9 -8 7 -17z m292 5 c0 -7 -12 -71 -26 -143
-28 -135 -44 -169 -66 -147 -10 10 -10 14 -1 20 7 5 24 60 38 123 35 162 34
159 45 159 6 0 10 -6 10 -12z m895 -25 c-18 -100 -28 -135 -45 -155 -18 -22
-18 -19 1 72 25 117 26 120 40 120 8 0 9 -12 4 -37z m195 17 c0 -33 -52 -264
-62 -277 -5 -6 -16 -9 -23 -6 -12 4 -12 8 -1 26 8 12 19 47 25 77 30 146 44
200 52 200 5 0 9 -9 9 -20z m-3034 -4 c18 -14 17 -15 -14 -14 -71 2 -116 -52
-117 -140 0 -44 -2 -50 -12 -35 -19 25 -16 89 7 133 31 61 94 87 136 56z m530
4 c15 -6 33 -18 40 -28 19 -24 17 -97 -2 -138 -15 -32 -48 -64 -66 -64 -4 0
-19 38 -34 85 -25 77 -30 84 -44 70 -10 -11 -15 -35 -15 -76 0 -50 -2 -57 -12
-42 -17 23 -16 86 1 128 14 32 66 75 93 75 6 0 24 -5 39 -10z m740 0 c40 -16
53 -39 53 -95 l-1 -50 -21 62 c-11 34 -27 65 -34 68 -8 2 -30 -2 -49 -10 -46
-19 -79 -89 -71 -149 5 -37 4 -39 -9 -22 -34 47 -7 152 48 186 38 23 46 24 84
10z m-2298 -36 c4 -44 -24 -65 -98 -71 -58 -6 -62 -5 -57 13 3 10 9 36 13 57
l6 38 67 -3 c66 -3 66 -3 69 -34z m687 26 c-3 -5 -19 -10 -35 -10 -16 0 -32 5
-35 10 -4 6 10 10 35 10 25 0 39 -4 35 -10z m425 -41 c0 -21 -16 -33 -30 -24
-8 5 -7 11 1 21 6 8 9 24 6 36 -6 22 -6 22 8 4 8 -11 15 -28 15 -37z m1790 41
c0 -5 -20 -10 -45 -10 -38 0 -45 -3 -50 -22 -49 -225 -60 -248 -110 -248 -30
0 -33 16 -5 25 32 10 48 43 70 145 12 52 23 101 25 108 5 15 115 17 115 2z
m190 -89 c-11 -23 -27 -41 -36 -41 -18 0 -18 -1 21 74 26 48 30 53 33 32 2
-13 -6 -43 -18 -65z m-1420 25 c4 -20 4 -52 0 -72 -6 -25 -3 -55 10 -100 l17
-64 -78 0 c-44 0 -79 4 -79 9 0 4 -19 11 -41 14 -23 3 -46 10 -51 15 -7 7 3 9
29 5 52 -7 103 17 140 65 25 33 28 46 28 109 0 74 10 82 25 19z m-1968 2 c-7
-28 -157 -204 -181 -213 -8 -3 -19 -1 -24 4 -6 6 5 22 29 44 22 20 71 71 109
115 39 44 71 79 72 78 1 -1 -1 -14 -5 -28z m2210 0 c-11 -42 -163 -207 -189
-208 -31 0 -29 4 15 44 20 19 69 70 107 114 39 44 71 79 72 78 1 -1 -1 -14 -5
-28z m2070 0 c-11 -42 -163 -208 -189 -208 -31 0 -29 4 15 44 20 19 69 70 107
114 39 44 71 79 72 78 1 -1 -1 -14 -5 -28z m-2776 -83 c-7 -8 -17 -34 -20 -59
-8 -52 -32 -84 -50 -66 -8 8 -8 13 1 18 7 4 17 30 23 57 18 85 19 86 41 75 17
-9 17 -13 5 -25z m1389 16 c3 -6 -17 -11 -47 -13 l-53 -3 1 -37 c1 -32 -2 -38
-19 -38 -17 0 -19 5 -13 38 3 20 6 43 6 50 0 15 116 17 125 3z m-1280 -77 c24
-58 20 -79 -12 -67 -18 7 -17 23 3 23 8 0 13 4 10 8 -14 23 -46 115 -36 106 6
-6 22 -37 35 -70z m-215 29 c0 -5 -9 -23 -20 -41 -33 -55 -131 -81 -176 -48
-17 13 -15 14 22 9 48 -6 91 13 126 56 21 28 48 41 48 24z m2035 -3 c-3 -5
-27 -10 -53 -10 -44 0 -49 -3 -67 -36 -22 -41 -50 -60 -61 -42 -4 6 -2 14 4
16 7 2 22 21 32 43 l20 39 66 0 c41 0 63 -4 59 -10z"/>
<path d="M1400 2604 c0 -4 18 -56 40 -116 45 -122 43 -148 -10 -148 -32 0 -43
-26 -15 -36 41 -16 63 6 154 151 50 80 91 147 91 150 0 3 -8 5 -19 5 -13 0
-36 -29 -76 -97 l-58 -97 -35 97 c-27 76 -39 97 -53 97 -11 0 -19 -3 -19 -6z"/>
<path d="M1680 2569 c-20 -75 -17 -119 10 -141 21 -17 35 -19 86 -15 l62 6
-13 -54 c-12 -53 -12 -55 9 -55 19 0 24 13 50 137 15 75 31 143 33 151 4 10
-1 13 -18 10 -21 -3 -25 -12 -37 -75 -13 -66 -17 -73 -45 -82 -79 -28 -125 0
-109 66 24 93 24 93 3 93 -15 0 -23 -10 -31 -41z"/>
<path d="M1980 2605 c0 -2 -13 -68 -30 -145 -16 -77 -30 -143 -30 -145 0 -3
52 -5 115 -5 96 0 115 3 115 15 0 12 -17 15 -91 15 l-91 0 7 43 c4 23 9 45 12
50 2 4 42 7 87 7 75 0 84 2 89 20 5 19 0 20 -79 20 -91 0 -90 -1 -78 59 l7 31
87 0 c85 0 100 5 100 36 0 2 -49 4 -110 4 -60 0 -110 -2 -110 -5z"/>
<path d="M2260 2605 c0 -2 -13 -66 -30 -142 -16 -75 -30 -141 -30 -145 0 -4
41 -8 91 -8 87 0 92 1 120 29 21 21 29 39 29 65 0 50 -36 76 -106 76 -58 0
-59 1 -48 59 l7 31 78 0 c72 0 79 2 79 20 0 19 -7 20 -95 20 -52 0 -95 -2 -95
-5z m124 -171 c25 -10 19 -50 -10 -73 -19 -15 -41 -21 -77 -21 l-50 0 7 38 c3
20 6 43 6 50 0 13 94 18 124 6z"/>
<path d="M7455 2588 c-16 -73 -55 -261 -55 -269 0 -5 8 -9 19 -9 14 0 21 13
33 68 l14 67 77 3 c42 2 77 -1 77 -5 -1 -4 -7 -36 -14 -71 -14 -62 -13 -63 7
-60 19 3 25 19 49 133 33 156 34 168 11 163 -13 -2 -22 -21 -31 -66 l-14 -62
-75 0 -76 0 7 50 c4 28 9 57 12 65 4 10 0 15 -15 15 -13 0 -22 -8 -26 -22z"/>
<path d="M7515 2091 c-40 -24 -60 -49 -74 -90 -53 -160 87 -265 201 -151 42
42 48 60 18 60 -11 0 -20 -3 -20 -8 0 -4 -11 -20 -25 -35 -36 -38 -95 -38
-124 -1 -36 45 -23 129 27 186 36 42 121 28 137 -21 4 -12 12 -18 21 -14 23 9
16 40 -17 67 -37 32 -99 35 -144 7z"/>
<path d="M9630 2605 c0 -2 -13 -66 -30 -142 -16 -75 -30 -141 -30 -145 0 -4 9
-8 19 -8 12 0 57 42 117 110 54 60 99 108 100 107 2 -1 -8 -50 -21 -110 -22
-103 -22 -107 -4 -107 11 0 21 9 24 23 20 85 55 252 55 264 0 35 -44 2 -135
-102 -55 -62 -100 -113 -101 -112 -2 2 25 132 41 205 4 17 1 22 -15 22 -11 0
-20 -2 -20 -5z"/>
<path d="M10035 2588 c-16 -73 -55 -261 -55 -269 0 -5 9 -9 19 -9 15 0 22 11
30 53 6 28 19 87 28 130 l16 77 79 0 c71 0 79 -2 74 -17 -3 -10 -16 -69 -29
-131 l-25 -113 21 3 c19 3 25 19 49 133 15 72 28 138 28 148 0 15 -12 17 -115
17 -111 0 -115 -1 -120 -22z"/>
<path d="M10340 2607 c0 -2 -13 -65 -30 -140 -16 -76 -30 -142 -30 -147 0 -6
39 -10 91 -10 87 0 92 1 120 29 21 21 29 39 29 65 0 51 -36 76 -110 76 l-57 0
10 45 10 45 79 0 c71 0 78 2 78 20 0 19 -7 20 -95 20 -52 0 -95 -1 -95 -3z
m128 -179 c38 -38 -15 -88 -93 -88 l-52 0 11 50 10 50 56 0 c31 0 61 -5 68
-12z"/>
<path d="M9460 728 c0 -397 2 -719 4 -717 7 8 796 1429 796 1434 0 3 -180 5
-400 5 l-400 0 0 -722z"/>
</g>
</svg>
