<?xml version="1.0" encoding="UTF-8"?>
<svg version="1.1" xmlns="http://www.w3.org/2000/svg" width="784" height="657">
<path d="M0 0 C0.95167951 -0.00175304 1.90335902 -0.00350607 2.88387731 -0.00531223 C6.06719853 -0.00995761 9.25047379 -0.0075105 12.43379688 -0.00507832 C14.74147526 -0.00694702 17.04915333 -0.00924797 19.35683089 -0.01194364 C25.69435309 -0.01806065 32.03186208 -0.01792816 38.36938655 -0.01674926 C44.50368295 -0.01608018 50.63797619 -0.02105737 56.77227069 -0.02536215 C70.86732949 -0.03502727 84.96238466 -0.03784608 99.05744638 -0.03841921 C109.94384091 -0.03887897 120.83023401 -0.04093845 131.71662807 -0.04411983 C134.85169039 -0.0450174 137.98675271 -0.04590721 141.12181503 -0.04679471 C142.29093766 -0.04712628 142.29093766 -0.04712628 143.48367894 -0.04746456 C165.40397257 -0.05361781 187.32426571 -0.05756522 209.24456024 -0.05712128 C210.48394206 -0.05709791 210.48394206 -0.05709791 211.74836189 -0.05707407 C215.93604057 -0.05699096 220.12371925 -0.05689192 224.31139793 -0.05678936 C225.55890052 -0.05675944 225.55890052 -0.05675944 226.83160518 -0.05672892 C228.51344122 -0.05668848 230.19527726 -0.05664669 231.8771133 -0.05660353 C258.04020385 -0.05599086 284.20328145 -0.06349623 310.36636829 -0.07717609 C339.76967613 -0.09254388 369.17297546 -0.1011419 398.57628757 -0.10021287 C401.71292166 -0.10013824 404.84955575 -0.10008954 407.98618984 -0.10005856 C408.75849169 -0.1000469 409.53079353 -0.10003525 410.32649846 -0.10002324 C422.74302492 -0.09999249 435.1595401 -0.1063724 447.57606321 -0.11499082 C460.05992418 -0.12347663 472.54376869 -0.12444998 485.02763095 -0.1178815 C491.78775793 -0.11451617 498.5478417 -0.11456251 505.30796528 -0.12323475 C511.5004956 -0.13109708 517.6929528 -0.12967094 523.88548134 -0.12095062 C526.12165151 -0.11941505 528.35782714 -0.1212339 530.59399088 -0.12681069 C554.15883606 -0.18167111 574.26672667 1.828386 592.37344837 18.69113445 C607.57919323 34.59905543 610.51444661 54.70858098 610.43991566 75.96774578 C610.44222555 77.4216318 610.44540559 78.87551666 610.44937015 80.32939911 C610.45765423 84.28831594 610.45362223 88.2471353 610.44739771 92.2060523 C610.44284784 96.48969085 610.44986948 100.77331336 610.45535755 105.05694866 C610.46422627 113.43429597 610.46234081 121.81160734 610.45653227 130.18895602 C610.45200584 137.00060841 610.45140712 143.81225076 610.4535799 150.62390423 C610.45388637 151.59531662 610.45419283 152.56672901 610.45450859 153.56757814 C610.45514807 155.54130769 610.4557965 157.51503724 610.45645377 159.48876679 C610.46214968 177.97359868 610.45561078 196.4584107 610.44485304 214.94323933 C610.4359182 230.78597213 610.43747045 246.62867562 610.44669056 262.47140789 C610.45740626 280.89247622 610.46160042 299.31352715 610.45546603 317.73459816 C610.45482897 319.70085366 610.45420023 321.66710917 610.4535799 323.63336468 C610.45327135 324.60066739 610.4529628 325.56797011 610.4526449 326.56458503 C610.45092186 333.36390338 610.45382462 340.16321064 610.45853901 346.96252728 C610.46416229 355.25455044 610.46260102 363.54653576 610.45197752 371.83855462 C610.44674026 376.06498276 610.44463071 380.29134793 610.45127583 384.51777554 C610.45727792 388.39400016 610.45389066 392.27010402 610.44332072 396.14631784 C610.44110462 397.54117031 610.44218221 398.93603319 610.4470723 400.33087885 C610.51730209 422.04554785 606.57217402 440.51344518 591.04532337 456.3981657 C571.26725054 475.2846041 546.69248939 474.58808067 521.0520376 474.53546751 C517.12093556 474.53068995 513.1898803 474.54328521 509.25879383 474.55348492 C501.58216778 474.57058477 493.9056239 474.57153201 486.22898377 474.56627201 C479.98852485 474.56221537 473.74809004 474.56369149 467.50763226 474.56902027 C466.17075557 474.5701429 466.17075557 474.5701429 464.80687128 474.57128822 C462.99588366 474.57281981 461.18489605 474.57435816 459.37390845 474.57590318 C442.43665949 474.58959431 425.49945688 474.58421266 408.562209 474.57271797 C393.07943542 474.56277175 377.5967811 474.57575624 362.1140259 474.59965216 C346.18703223 474.62404746 330.26009411 474.63365105 314.33308214 474.62699944 C305.40266027 474.62351042 296.47233026 474.62571929 287.54192257 474.64325047 C279.94669353 474.65797707 272.35162121 474.658601 264.75639523 474.64117955 C260.88465558 474.63267422 257.01319587 474.63050883 253.14147091 474.64583111 C248.93956338 474.66225423 244.73832985 474.64751708 240.5364275 474.6298399 C239.32037565 474.6394449 238.1043238 474.64904991 236.85142189 474.65894598 C229.00704542 474.59108993 221.36075315 473.80980369 215.24835259 468.42014307 C210.26052719 463.09997437 208.74257979 457.55780996 208.93594837 450.3669157 C209.62437131 444.20337906 212.49345949 439.98690309 217.18594837 436.12863445 C224.25842883 431.66061853 230.22353716 431.56681188 238.46364307 431.63656902 C239.80882313 431.63355495 241.15400018 431.62877481 242.49916846 431.62239027 C246.18078737 431.60992022 249.86196811 431.62215109 253.54355657 431.63846517 C257.5197821 431.65166626 261.49595677 431.64166603 265.472188 431.6343565 C272.35836116 431.62468552 279.24440767 431.62913014 286.13057232 431.64277935 C296.09653762 431.66216186 306.06236088 431.65569409 316.02832992 431.64220554 C332.21132887 431.62063163 348.39429429 431.61390887 364.57730579 431.61935711 C366.02938921 431.61983806 366.02938921 431.61983806 367.51080764 431.62032872 C375.36469521 431.62304125 383.21858244 431.62647251 391.07246971 431.62993431 C397.93638632 431.63292941 404.80030297 431.63563766 411.66421986 431.6379118 C412.63079 431.63823731 413.59736014 431.63856282 414.59322029 431.63889819 C430.7154243 431.64384203 446.83758175 431.6331569 462.95977122 431.61134005 C472.89946222 431.5986482 482.83896123 431.60008208 492.77864183 431.61979091 C499.58975819 431.63240577 506.40077725 431.63092965 513.21189349 431.61841738 C517.14015957 431.61171034 521.06814146 431.61157703 524.99638081 431.62899876 C528.59577363 431.64485966 532.1946708 431.64220721 535.79405374 431.62514871 C537.7057454 431.62086896 539.61745024 431.63627222 541.52907795 431.65248442 C549.6565934 431.58893464 556.55078983 430.66813093 562.56094837 424.81613445 C610.80927698 345.02082175 567.84058771 238.37601441 568.18594837 145.12863445 C371.50594837 145.12863445 174.82594837 145.12863445 -27.81405163 145.12863445 C-56.58274541 299.509887 -56.58274541 299.509887 -19.93905163 427.06613445 C-15.98079435 429.67858426 -12.76295701 430.88364493 -8.04842663 431.4762907 C1.00738439 432.64808534 5.91213268 435.11821023 11.68594837 442.19113445 C14.51047732 447.85280185 14.32704817 455.35422743 12.52579212 461.3122282 C9.62961981 466.94158477 4.71202562 470.96663892 -0.93905163 473.56613445 C-6.67600355 474.3989178 -12.08268689 473.83890174 -17.81405163 473.12863445 C-18.56557507 473.05000164 -19.3170985 472.97136883 -20.09139538 472.8903532 C-35.94440454 470.36482583 -49.52703138 459.18896647 -58.99373913 446.8669157 C-69.17795928 431.54687637 -69.96982669 415.55552645 -69.9477644 397.73294353 C-69.94963555 396.29060995 -69.95193746 394.84827687 -69.95462972 393.40594459 C-69.96071644 389.46500999 -69.96061783 385.52409671 -69.95943534 381.58315849 C-69.95923054 377.32399135 -69.96475763 373.06483091 -69.96949291 368.80566692 C-69.97778274 360.46969432 -69.98054699 352.13372879 -69.98110529 343.79775241 C-69.98158122 337.01893357 -69.98363982 330.24011705 -69.98680592 323.46129894 C-69.99560777 304.22316359 -70.000226 284.9850338 -69.99947544 265.74689642 C-69.99943549 264.71078012 -69.99939553 263.67466383 -69.99935436 262.60715008 C-69.99931348 261.56976227 -69.9992726 260.53237446 -69.99923048 259.46355066 C-69.9988241 242.65419938 -70.00839298 225.84487051 -70.02249273 209.03552571 C-70.03687095 191.75725032 -70.04376212 174.47898586 -70.04289895 157.20070434 C-70.04256749 147.50771847 -70.0452922 137.81475609 -70.056077 128.12177563 C-70.06520102 119.8688716 -70.06734164 111.61600173 -70.06056758 103.36309484 C-70.05731203 99.15681356 -70.05721067 94.95059774 -70.06592083 90.74432278 C-70.07382957 86.88520073 -70.07231019 83.02619555 -70.0636367 79.1670762 C-70.061395 77.12796125 -70.06889583 75.08884255 -70.07687634 73.04974198 C-69.99498802 50.95376109 -65.68084287 33.08012387 -49.81405163 17.12863445 C-49.03674694 16.29912273 -49.03674694 16.29912273 -48.24373913 15.4528532 C-44.34401115 11.66542106 -39.6789629 9.32463767 -34.87655163 6.87863445 C-34.20809216 6.53687176 -33.53963268 6.19510906 -32.85091686 5.84298992 C-22.3715101 0.71256685 -11.52154478 -0.02719426 0 0 Z M-22.68905163 48.87863445 C-33.52163795 65.44611942 -27.81405163 82.24835087 -27.81405163 103.12863445 C168.86594837 103.12863445 365.54594837 103.12863445 568.18594837 103.12863445 C571.21647321 73.60228911 571.21647321 73.60228911 561.93594837 47.19113445 C555.4994773 42.36378115 549.22218438 41.6886767 541.44974327 41.74831772 C540.01664268 41.74132784 540.01664268 41.74132784 538.55459055 41.73419675 C535.35251387 41.72224399 532.15086126 41.73164349 528.94878101 41.7409544 C526.63015037 41.73678163 524.31152178 41.73130442 521.99289697 41.72463459 C515.62062221 41.71015406 509.2484765 41.71443291 502.8761946 41.7218014 C496.70998491 41.72750158 490.54379377 41.71622714 484.37759231 41.70689378 C470.98736641 41.68722616 457.59717922 41.68487962 444.20694232 41.69008898 C432.48831937 41.69464578 420.76971174 41.69404744 409.05108929 41.68824863 C407.47930081 41.68749177 405.90751233 41.68673579 404.33572386 41.68598069 C401.96719755 41.6848355 399.59867125 41.68368562 397.23014495 41.68252145 C375.20946351 41.67181622 353.18878718 41.66709146 331.16810417 41.67499161 C329.92293561 41.67543737 329.92293561 41.67543737 328.65261213 41.67589213 C321.91146619 41.67834108 315.17032031 41.68095266 308.42917443 41.68357627 C282.13201037 41.69367951 255.83491016 41.68532191 229.53775501 41.66208172 C199.99312882 41.63601381 170.44854107 41.62315987 140.90390295 41.63026947 C137.75414305 41.63098553 134.60438314 41.63165992 131.45462322 41.63230991 C130.29129558 41.63256463 130.29129558 41.63256463 129.10446637 41.63282449 C117.39399817 41.63512809 105.68356564 41.62714761 93.97310543 41.61401844 C80.65668597 41.59911538 67.34035017 41.59825309 54.02393252 41.61608935 C47.22793417 41.62481717 40.43210527 41.62669271 33.63611317 41.6114378 C27.41658502 41.59764951 21.19735449 41.60227853 14.97784381 41.62167703 C12.72625623 41.62545534 10.47464513 41.62246274 8.22307838 41.61206538 C5.16435737 41.59894361 2.10667086 41.61043663 -0.95200539 41.6280632 C-2.26557374 41.61358743 -2.26557374 41.61358743 -3.60567883 41.59881923 C-11.10533006 41.68765674 -17.21214389 43.63985314 -22.68905163 48.87863445 Z " fill="#050505" transform="translate(113.8140516281128,65.87136554718018)"/>
<path d="M0 0 C26.37087411 22.22986511 41.3869473 53.4136091 44.31591797 87.62109375 C46.47196998 122.19357693 33.62666958 153.93017329 11.05810547 179.625 C-5.53072182 198.01897959 -26.99883121 209.26389732 -50.68408203 215.62109375 C-51.54388672 215.85441406 -52.40369141 216.08773437 -53.28955078 216.328125 C-68.47589082 220.06423344 -94.64853869 222.42588484 -108.6685791 214.51751709 C-113.6596594 211.95693334 -118.06569785 210.50645525 -123.68408203 211.62109375 C-133.59046852 217.17830934 -141.36292517 226.52895368 -149.07595253 234.711236 C-152.25292175 238.05400541 -155.50052791 241.32665733 -158.74157715 244.6071167 C-164.87152205 250.83215746 -170.9394637 257.11401772 -176.98562956 263.42035174 C-185.84193074 272.6524023 -194.78780691 281.79699328 -203.73497772 290.94086838 C-205.06077275 292.29606226 -206.38654048 293.65128284 -207.71228027 295.00653076 C-208.36029335 295.6687428 -209.00830642 296.33095483 -209.67595625 297.0132339 C-213.50278951 300.92796911 -217.31160456 304.85919312 -221.10473728 308.80658579 C-223.47474468 311.27083642 -225.85282989 313.72719951 -228.23210144 316.18250275 C-229.3247425 317.3142411 -230.41363108 318.44961769 -231.49822998 319.58906555 C-243.0386052 331.70842646 -256.1807235 341.45891598 -273.5078125 341.91381836 C-288.24410674 342.04772456 -300.28891076 338.22541556 -311.37939453 328.1796875 C-321.63107799 317.6678867 -326.547228 305.37895651 -327.05908203 290.87109375 C-326.68177268 267.55337581 -310.81807926 253.48938502 -295.3059082 238.30395508 C-294.21698569 237.23338803 -293.1283984 236.16247992 -292.04011536 235.09126282 C-289.72393152 232.811712 -287.40649964 230.53344021 -285.08836937 228.25586891 C-281.42202071 224.65145015 -277.7653779 221.03729038 -274.11116028 217.420578 C-273.49118375 216.80699348 -272.87120721 216.19340895 -272.23244351 215.56123096 C-269.68451221 213.03924478 -267.13686937 210.51696734 -264.58928525 207.99463046 C-257.38292312 200.86062825 -250.16754632 193.73626544 -242.92602539 186.63793945 C-237.14421251 180.97032429 -231.38201723 175.28357995 -225.64215642 169.57347125 C-222.6115113 166.56000522 -219.57180928 163.55715961 -216.50795555 160.57743263 C-213.6349634 157.78293674 -210.78865535 154.9638402 -207.96079826 152.1237011 C-206.91978128 151.08730679 -205.86930015 150.06031956 -204.80892563 149.04373932 C-199.02203101 143.92953926 -199.02203101 143.92953926 -196.51902866 137.03618336 C-197.0165212 134.71931894 -197.70728075 132.77292155 -198.68408203 130.62109375 C-203.37872745 109.45852792 -203.37872745 109.45852792 -203.68408203 101.62109375 C-203.76142578 100.1515625 -203.76142578 100.1515625 -203.84033203 98.65234375 C-204.69639873 68.11929816 -194.31150449 38.88207385 -174.68408203 15.62109375 C-173.55486328 14.28111328 -173.55486328 14.28111328 -172.40283203 12.9140625 C-155.75664222 -6.16458111 -134.1292468 -19.05307625 -109.68408203 -25.37890625 C-108.50330078 -25.69859375 -107.32251953 -26.01828125 -106.10595703 -26.34765625 C-68.71968577 -34.93854411 -29.31656052 -24.00404955 0 0 Z M-141.49658203 40.43359375 C-156.07683946 57.55536394 -163.29712767 78.98548091 -161.88671875 101.41650391 C-160.26030285 119.11112505 -153.55158125 135.37727624 -141.68408203 148.62109375 C-140.57033203 150.13703125 -140.57033203 150.13703125 -139.43408203 151.68359375 C-129.9578967 162.9028901 -114.65817688 170.87836848 -100.68408203 174.62109375 C-99.86037109 174.84667969 -99.03666016 175.07226562 -98.18798828 175.3046875 C-77.53437674 179.97672131 -55.00252424 176.34104631 -37.05908203 165.30859375 C-17.50571219 152.29179711 -3.98157623 134.31096247 1.25341797 111.18359375 C5.00679457 88.80408576 0.69644112 66.3579633 -12.39892578 47.6328125 C-25.32243064 30.60029585 -42.82034889 17.83409313 -64.30761719 13.93457031 C-93.81042041 10.04289173 -120.95093614 18.80106216 -141.49658203 40.43359375 Z M-179.05592346 180.70532227 C-179.97437042 181.61090378 -180.89281738 182.51648529 -181.83909607 183.44950867 C-182.85989189 184.46621848 -183.88056335 185.48305317 -184.90112305 186.5 C-185.97329371 187.56128166 -187.04585345 188.62217037 -188.11877441 189.68269348 C-191.03916826 192.57250943 -193.95273527 195.4691125 -196.86420941 198.36791229 C-198.68292319 200.17855115 -200.50268393 201.98813153 -202.32273674 203.79742432 C-208.01565238 209.45759671 -213.70412736 215.12218195 -219.38678223 220.79265594 C-225.94837418 227.34000081 -232.52449249 233.87228021 -239.11357933 240.39195156 C-244.20364277 245.43023071 -249.28018138 250.48188144 -254.34674209 255.54379368 C-257.3738039 258.56745657 -260.40632915 261.58511164 -263.45312691 264.58889771 C-266.32086202 267.41685599 -269.17143067 270.26105704 -272.00980377 273.11847496 C-273.05303946 274.16297605 -274.10226117 275.20153849 -275.15787315 276.23353004 C-281.67094828 282.20434627 -281.67094828 282.20434627 -284.87705994 290.12353516 C-284.66080628 294.0429468 -284.3794123 295.75730534 -281.68408203 298.62109375 C-278.4844965 300.15935602 -276.23034277 301.12821749 -272.74267578 299.984375 C-269.11872099 298.07026109 -267.28348793 296.31203044 -265.68408203 292.62109375 C-263.55908203 291.37109375 -263.55908203 291.37109375 -261.68408203 290.62109375 C-261.68408203 289.96109375 -261.68408203 289.30109375 -261.68408203 288.62109375 C-259.70408203 287.63109375 -259.70408203 287.63109375 -257.68408203 286.62109375 C-257.68408203 285.96109375 -257.68408203 285.30109375 -257.68408203 284.62109375 C-255.70408203 283.63109375 -255.70408203 283.63109375 -253.68408203 282.62109375 C-253.68408203 281.96109375 -253.68408203 281.30109375 -253.68408203 280.62109375 C-251.70408203 279.63109375 -251.70408203 279.63109375 -249.68408203 278.62109375 C-249.68408203 277.96109375 -249.68408203 277.30109375 -249.68408203 276.62109375 C-247.70408203 275.63109375 -247.70408203 275.63109375 -245.68408203 274.62109375 C-245.68408203 273.96109375 -245.68408203 273.30109375 -245.68408203 272.62109375 C-243.70408203 271.63109375 -243.70408203 271.63109375 -241.68408203 270.62109375 C-241.68408203 269.96109375 -241.68408203 269.30109375 -241.68408203 268.62109375 C-239.70408203 267.63109375 -239.70408203 267.63109375 -237.68408203 266.62109375 C-237.68408203 265.96109375 -237.68408203 265.30109375 -237.68408203 264.62109375 C-235.70408203 263.63109375 -235.70408203 263.63109375 -233.68408203 262.62109375 C-233.68408203 261.96109375 -233.68408203 261.30109375 -233.68408203 260.62109375 C-231.70408203 259.63109375 -231.70408203 259.63109375 -229.68408203 258.62109375 C-229.68408203 257.96109375 -229.68408203 257.30109375 -229.68408203 256.62109375 C-229.10658203 256.37359375 -228.52908203 256.12609375 -227.93408203 255.87109375 C-225.35468224 254.43809387 -223.62286611 252.83684699 -221.68408203 250.62109375 C-221.68408203 249.96109375 -221.68408203 249.30109375 -221.68408203 248.62109375 C-220.72501953 248.21890625 -220.72501953 248.21890625 -219.74658203 247.80859375 C-217.35276517 246.73441623 -217.35276517 246.73441623 -216.68408203 243.62109375 C-215.36000535 242.9362265 -214.02498962 242.27239172 -212.68408203 241.62109375 C-210.43343101 239.70442454 -210.43343101 239.70442454 -208.68408203 237.62109375 C-208.68408203 236.96109375 -208.68408203 236.30109375 -208.68408203 235.62109375 C-208.10658203 235.37359375 -207.52908203 235.12609375 -206.93408203 234.87109375 C-204.35468224 233.43809387 -202.62286611 231.83684699 -200.68408203 229.62109375 C-200.68408203 228.96109375 -200.68408203 228.30109375 -200.68408203 227.62109375 C-200.10658203 227.37359375 -199.52908203 227.12609375 -198.93408203 226.87109375 C-196.35468224 225.43809387 -194.62286611 223.83684699 -192.68408203 221.62109375 C-192.68408203 220.96109375 -192.68408203 220.30109375 -192.68408203 219.62109375 C-192.10658203 219.37359375 -191.52908203 219.12609375 -190.93408203 218.87109375 C-188.35468224 217.43809387 -186.62286611 215.83684699 -184.68408203 213.62109375 C-184.68408203 212.96109375 -184.68408203 212.30109375 -184.68408203 211.62109375 C-184.10658203 211.37359375 -183.52908203 211.12609375 -182.93408203 210.87109375 C-180.35468224 209.43809387 -178.62286611 207.83684699 -176.68408203 205.62109375 C-176.68408203 204.96109375 -176.68408203 204.30109375 -176.68408203 203.62109375 C-176.12720703 203.41484375 -175.57033203 203.20859375 -174.99658203 202.99609375 C-172.42561417 201.46741016 -170.95728952 199.61421013 -169.12158203 197.28515625 C-166.61982658 194.38910239 -163.64709938 192.02907903 -160.68408203 189.62109375 C-164.48422977 185.06630675 -168.3407375 180.66830116 -172.68408203 176.62109375 C-175.80142552 176.62109375 -176.87753827 178.54665734 -179.05592346 180.70532227 Z " fill="#040404" transform="translate(463.68408203125,259.37890625)"/>
<path d="M0 0 C5.05258291 3.5469132 8.94710573 7.55857295 10.5078125 13.65234375 C11.38146094 20.42776624 10.54629287 25.17755565 6.44921875 30.8125 C2.25360168 36.01636613 -1.3161071 38.8430076 -8.0625 39.75 C-14.7670586 40.19630937 -19.22219663 38.97353113 -24.4375 34.6875 C-29.45587698 29.97003151 -31.76520261 25.22707132 -32.30859375 18.37109375 C-32.00001887 12.16973402 -29.48430172 6.7130915 -24.9375 2.5 C-17.07690178 -3.38708633 -8.81775388 -4.9547379 0 0 Z " fill="#0C0C0C" transform="translate(230.1875,120.0625)"/>
<path d="M0 0 C5.05844309 3.44848674 9.25732483 7.73317889 10.8125 13.8125 C11.69181081 20.72523577 10.03549775 25.72621407 6.8125 31.8125 C6.1525 31.8125 5.4925 31.8125 4.8125 31.8125 C4.4825 32.8025 4.1525 33.7925 3.8125 34.8125 C-2.27135652 38.71535136 -6.82887132 40.52462536 -14.1875 39.8125 C-22.3629382 37.03984742 -27.34919035 32.48911929 -31.1875 24.8125 C-31.88567026 17.37298086 -31.76646351 10.94631405 -27.1875 4.8125 C-19.6107929 -3.11661208 -9.60101985 -5.55564632 0 0 Z " fill="#0B0B0B" transform="translate(127.1875,120.1875)"/>
<path d="M0 0 C4.48739747 3.24758043 7.92571531 7.87758799 8.89453125 13.37109375 C9.48764215 19.43907449 9.05839932 25.05310274 5.89453125 30.37109375 C1.92711789 35.01023848 -3.08159071 38.23144115 -9.10546875 39.37109375 C-16.25698433 39.74748931 -21.59107725 37.88983123 -27.10546875 33.37109375 C-31.37692348 29.09963902 -33.06118518 24.75140613 -33.140625 18.6875 C-32.71839796 11.09771146 -30.84425999 7.04763973 -25.35546875 1.68359375 C-16.86223738 -4.35966703 -9.24531666 -4.97824743 0 0 Z " fill="#0C0C0C" transform="translate(180.10546875,120.62890625)"/>
<path d="M0 0 C0.66 0.33 1.32 0.66 2 1 C-0.31 3.64 -2.62 6.28 -5 9 C-5 4.61031544 -2.87194899 3.23094261 0 0 Z " fill="#5C5C5C" transform="translate(104,121)"/>
<path d="M0 0 C0.66 0.33 1.32 0.66 2 1 C-0.31 3.31 -2.62 5.62 -5 8 C-5 5 -5 5 -2.5 2.3125 C-1.675 1.549375 -0.85 0.78625 0 0 Z " fill="#3C3C3C" transform="translate(332,501)"/>
</svg>
